<svg xmlns="http://www.w3.org/2000/svg" width="559" height="539" fill="none" viewBox="0 0 559 539"><path fill="#f3e9dd" d="M0 0h559v539H0z"/><path stroke="#000" stroke-dasharray="6 6" d="M0-.5h328.206" transform="rotate(-90 430.96 24.243)skewX(.1046)"/><path stroke="#000" stroke-width="2" d="M1 539V2M557 538H312M558 57v482M557 58H118M1 1h118M118 57V2"/><path stroke="#000" d="M387.5 539v-46M510 492.5H387M509.5 539v-56"/><path stroke="#000" stroke-width="2" d="M557 538H312"/><path stroke="#000" d="M387.5 539v-46M510 492.5H387M509.5 539v-56"/><path stroke="#000" stroke-width="2" d="M2 538h245"/><path stroke="#000" d="M171.5 539v-46M49 492.5h123M49.5 539v-56"/><path stroke="#000" stroke-width="2" d="M2 538h245"/><path stroke="#000" d="M171.5 539v-46M49 492.5h123M49.5 539v-56M509.5 539V57M49.5 538V14M2 13.5h69M70.5 14V2M96.5 2v57M96 58.5h27M510.066 100.961l-414.0968-.69M96.5 100V59M96 58.5H79M79.5 59v41M96 100.5H79M309 441.5h-84M308.5 441V141M225.5 441V141M225 140.5h84M171 357.5H87M170.5 357V155M87.5 357V155M87 154.5h84"/><path stroke="#000" stroke-dasharray="6 6" d="M128.5 155v202"/><path stroke="#000" stroke-dasharray="6 6" d="M0-.5h300.275" transform="rotate(-90 353.87 87.367)skewX(.1183)"/><path stroke="#000" d="M449 455.5h-84M448.5 455V127M365.5 455V127M365 126.5h84"/><path stroke="#000" stroke-dasharray="6 6" d="M0-.5h328.206" transform="rotate(-90 430.96 24.243)skewX(.1046)"/><path stroke="#000" d="M101.5 357v105M142.5 357v42M142 399.5h-40M142 398.5h22M164.5 399v63M101 461.5h63M387 510.5h-18M369.5 510v28M369.494 510.49l-3.492 13.966M368.522 537.717l-2.793-11.871M172 522.5h13M185.5 523v15M185.5 524v12"/><path fill="#000" d="M333.395 436.531h4.305q1.305 0 2.04.735.75.735.75 1.965 0 .585-.165.99t-.42.675q-.255.255-.555.39-.3.12-.555.165v.09q.285.015.63.15.36.135.675.435.315.285.525.75.225.45.225 1.095t-.21 1.2q-.195.555-.555.96t-.855.645q-.495.225-1.08.225h-4.755zm1.26 9.36h3.105q.81 0 1.275-.405.465-.42.465-1.215v-.51q0-.795-.465-1.2-.465-.42-1.275-.42h-3.105zm0-4.83h2.895q.75 0 1.17-.375t.42-1.08v-.51q0-.705-.42-1.08t-1.17-.375h-2.895zM69.395 458.531h3.51q.975 0 1.77.33t1.35.99q.57.645.87 1.635.3.975.3 2.28t-.3 2.295q-.3.975-.87 1.635-.555.645-1.35.975t-1.77.33h-3.51zm3.51 9.36q.645 0 1.185-.21.54-.225.93-.645t.6-1.02q.225-.615.225-1.395v-1.71q0-.78-.225-1.38-.21-.615-.6-1.035t-.93-.63q-.54-.225-1.185-.225h-2.25v8.25zM194.085 455.181q-1.995 0-3.105-1.35-1.11-1.365-1.11-4.005t1.11-4.05q1.11-1.425 3.105-1.425 1.32 0 2.205.6.9.6 1.395 1.695l-1.02.615q-.315-.81-.96-1.29-.645-.495-1.62-.495-.675 0-1.215.255-.525.255-.9.735-.36.465-.555 1.125-.195.645-.195 1.455v1.56q0 1.62.75 2.535t2.115.915q1.005 0 1.68-.51.675-.525.99-1.38l1.005.63q-.495 1.11-1.425 1.755-.93.63-2.25.63M479.95 478l-1.05-3.09h-4.23l-1.05 3.09h-1.275l3.66-10.47h1.605l3.66 10.47zm-3.135-9.3h-.075l-1.77 5.1h3.615z"/><path fill="#a7a7a7" d="M128.791 205.207h41.2002v50.2782H128.791z"/><path fill="#d9d9d9" d="M128.791 255.486h41.2002v50.9765H128.791z"/><path fill="#a7a7a7" d="M128.791 306.462h41.2002v50.9765H128.791z"/><path fill="#d9d9d9" d="M87.5903 205.207h41.2002v50.2782H87.5903z"/><path fill="#a7a7a7" d="M87.5903 255.486h41.2002v50.9765H87.5903z"/><path fill="#d9d9d9" d="M87.5903 306.462h41.2002v50.9765H87.5903z"/><path fill="#a7a7a7" d="M510.067 457.297h46.7867v80.3055H510.067z"/><path fill="#d9d9d9" d="M510.067 376.991h46.7867v80.3055H510.067z"/><path fill="#a7a7a7" d="M510.067 296.686h46.7867v80.3055H510.067z"/><path fill="#d9d9d9" d="M510.067 216.38h46.7867v80.3055H510.067z"/><path fill="#a7a7a7" d="M510.067 136.773h46.7867v80.3055H510.067z"/><path fill="#d9d9d9" d="M510.067 58.5626h46.7867v78.2106H510.067z"/><path fill="#a7a7a7" d="M365.517 258.279h41.2002v65.641H365.517z"/><path fill="#d9d9d9" d="M406.717 258.279h41.2002v65.641H406.717z"/><path fill="#a7a7a7" d="M365.517 389.561h41.2002v65.641H365.517z"/><path fill="#d9d9d9" d="M406.717 389.561h41.2002v65.641H406.717zM365.517 192.638h41.2002v65.641H365.517z"/><path fill="#a7a7a7" d="M406.717 192.638h41.2002v65.641H406.717z"/><path fill="#d9d9d9" d="M365.517 323.92h41.2002v65.641H365.517z"/><path fill="#a7a7a7" d="M406.717 323.92h41.2002v65.641H406.717z"/><path fill="#d9d9d9" d="M267.056 321.127h41.2002v60.0546H267.056z"/><path fill="#a7a7a7" d="M267.056 140.963h41.2002v60.0546H267.056z"/><path fill="#d9d9d9" d="M267.056 201.018h41.2002v60.0546H267.056z"/><path fill="#a7a7a7" d="M267.056 261.072h41.2v60.055h-41.2zM225.855 321.127h41.2002v60.0546H225.855z"/><path fill="#d9d9d9" d="M225.855 140.963h41.2002v60.0546H225.855z"/><path fill="#a7a7a7" d="M225.855 201.018h41.2002v60.0546H225.855z"/><path fill="#d9d9d9" d="M225.855 261.072h41.201v60.055h-41.201zM387.863 492.911h60.7529v44.6918H387.863z"/><path fill="#a7a7a7" d="M448.616 492.911h60.7529v44.6918H448.616zM49.8816 492.911h60.7529v44.6918H49.8816z"/><path fill="#d9d9d9" d="M110.634 492.911h60.7529v44.6918H110.634z"/><path fill="#daffd3" d="M225.855 381.181h81.9763v60.0546H225.855z"/><path fill="#000" d="M258.517 409.201h.841l1.977 4.829h.068l1.977-4.829h.841v5.818h-.659v-4.421h-.057l-1.818 4.421h-.636l-1.818-4.421h-.057v4.421h-.659zm6.799.625v-.625h4.363v.625h-1.829v5.193h-.705v-5.193zm7.918 5.193v.625h-3.636v-.625zm1.773-5.818v5.818h-.705v-5.08h-.034l-1.42.943v-.716l1.454-.965z"/><path fill="#daffd3" d="M87.5903 154.929h82.4004v50.2782H87.5903z"/><path fill="#000" d="M119.02 175.965h.841l1.978 4.83h.068l1.977-4.83h.841v5.819h-.659v-4.421h-.057l-1.818 4.421h-.636l-1.819-4.421h-.056v4.421h-.66zm6.799.625v-.625h4.364v.625h-1.829v5.194h-.705v-5.194zm7.919 5.194v.625h-3.637v-.625zm.594 0v-.512l1.921-2.102c.225-.246.411-.46.556-.642.146-.184.254-.356.324-.517.072-.163.108-.333.108-.512q0-.306-.147-.531c-.097-.149-.23-.265-.398-.346-.169-.082-.358-.123-.568-.123-.224 0-.419.047-.586.14a.96.96 0 0 0-.383.383c-.089.165-.134.358-.134.58h-.67c0-.341.079-.64.236-.898s.371-.458.642-.602c.273-.144.578-.216.917-.216.341 0 .643.072.907.216.263.144.469.338.619.582s.224.516.224.815c0 .214-.038.424-.116.628-.076.203-.208.429-.398.679-.187.248-.448.551-.781.909l-1.307 1.398v.046h2.705v.625z"/><path fill="#daffd3" d="M365.517 126.997h82.4004v65.641H365.517z"/><path fill="#000" d="M396.947 157.111h.841l1.978 4.83h.068l1.977-4.83h.841v5.818h-.659v-4.42h-.057l-1.818 4.42h-.637l-1.818-4.42h-.057v4.42h-.659zm6.799.625v-.625h4.364v.625h-1.83v5.193h-.704v-5.193zm7.919 5.193v.625h-3.637v-.625zm2.193.08c-.375 0-.709-.065-1.003-.193q-.438-.1935-.696-.537c-.17-.231-.263-.499-.278-.804h.715c.016.187.08.349.194.485.113.135.262.239.446.313.183.074.387.111.61.111.25 0 .472-.044.665-.131s.345-.208.455-.364c.11-.155.165-.335.165-.539 0-.214-.053-.403-.16-.566-.106-.164-.261-.293-.465-.386-.205-.093-.455-.139-.75-.139h-.466v-.625h.466c.231 0 .433-.042.608-.125.176-.084.313-.201.411-.352.101-.152.151-.33.151-.535 0-.197-.044-.368-.131-.514s-.21-.259-.369-.341c-.157-.081-.343-.122-.557-.122-.201 0-.39.037-.568.111q-.264.108-.432.315c-.112.137-.172.301-.182.495h-.681c.011-.305.103-.572.275-.802.172-.231.398-.411.676-.539.281-.129.588-.193.924-.193.359 0 .668.072.926.218.257.144.455.335.593.571.139.237.208.493.208.767 0 .328-.086.607-.259.838-.17.231-.402.391-.696.481v.045c.368.061.655.217.861.469.207.25.31.559.31.929 0 .316-.086.6-.259.852q-.255.375-.699.591-.4425.216-1.008.216"/></svg>