<svg width="607" height="678" viewBox="0 0 607 678" fill="none" xmlns="http://www.w3.org/2000/svg">
<rect width="607" height="678" fill="#FDFCF8"/>
<rect x="0.5" y="0.5" width="606" height="677" rx="6.5" fill="#FBF9F5" stroke="#E9E6E2"/>
<rect x="25" y="27" width="557" height="625" fill="#FDFCF8"/>
<line x1="26" y1="654.999" x2="26" y2="26.9987" stroke="#E7E4DF" stroke-width="2"/>
<line y1="-1" x2="245" y2="-1" transform="matrix(-1 0 0 1 582 654.999)" stroke="black" stroke-width="2"/>
<line x1="583" y1="91.9987" x2="583" y2="654.999" stroke="#E7E4DF" stroke-width="2"/>
<line x1="582" y1="92.9987" x2="143" y2="92.9987" stroke="#E7E4DF" stroke-width="2"/>
<line x1="25" y1="26" x2="144" y2="25.9987" stroke="#E7E4DF" stroke-width="2"/>
<line x1="143" y1="91.9987" x2="143" y2="26.9987" stroke="#E7E4DF" stroke-width="2"/>
<line y1="-0.5" x2="46" y2="-0.5" transform="matrix(0 -1 -1 0 412 654.999)" stroke="black"/>
<line y1="-0.5" x2="123" y2="-0.5" transform="matrix(-1 0 0 1 535 608.999)" stroke="black"/>
<line y1="-0.5" x2="56" y2="-0.5" transform="matrix(0 -1 -1 0 534 654.999)" stroke="black"/>
<line y1="-1" x2="245" y2="-1" transform="matrix(-1 0 0 1 582 654.999)" stroke="#E7E4DF" stroke-width="2"/>
<line y1="-0.5" x2="46" y2="-0.5" transform="matrix(0 -1 -1 0 412 654.999)" stroke="#E7E4DF"/>
<line y1="-0.5" x2="123" y2="-0.5" transform="matrix(-1 0 0 1 535 608.999)" stroke="#E7E4DF"/>
<line y1="-0.5" x2="56" y2="-0.5" transform="matrix(0 -1 -1 0 534 654.999)" stroke="black"/>
<line x1="27" y1="653.999" x2="272" y2="653.999" stroke="black" stroke-width="2"/>
<line x1="196.5" y1="654.999" x2="196.5" y2="608.999" stroke="black"/>
<line x1="74" y1="608.499" x2="197" y2="608.499" stroke="black"/>
<line x1="27" y1="653.999" x2="272" y2="653.999" stroke="#E7E4DF" stroke-width="2"/>
<line x1="196.5" y1="654.999" x2="196.5" y2="608.999" stroke="#E7E4DF"/>
<line x1="74" y1="608.499" x2="197" y2="608.499" stroke="#E7E4DF"/>
<line x1="534.5" y1="654.999" x2="534.5" y2="91.9987" stroke="#E7E4DF"/>
<line x1="73.5" y1="653.999" x2="73.5" y2="40.9987" stroke="#E7E4DF"/>
<line x1="27" y1="40.4987" x2="96" y2="40.4987" stroke="#E7E4DF"/>
<line x1="95.5" y1="40.9987" x2="95.5" y2="26.9987" stroke="#E7E4DF"/>
<line x1="121.5" y1="26.9987" x2="121.5" y2="93.9987" stroke="#E7E4DF"/>
<line x1="121" y1="93.4987" x2="148" y2="93.4987" stroke="#E7E4DF"/>
<line y1="-0.5" x2="414.098" y2="-0.5" transform="matrix(-0.999998 -0.00194909 0.00142516 -0.999999 535.067 142.145)" stroke="#E7E4DF"/>
<line x1="121.5" y1="141.999" x2="121.5" y2="93.9987" stroke="#E7E4DF"/>
<line x1="121" y1="93.4987" x2="104" y2="93.4987" stroke="#E7E4DF"/>
<line x1="104.5" y1="93.9987" x2="104.5" y2="141.999" stroke="#E7E4DF"/>
<line x1="121" y1="142.499" x2="104" y2="142.499" stroke="#E7E4DF"/>
<line x1="342" y1="526.499" x2="258" y2="526.499" stroke="#E7E4DF"/>
<line x1="341.5" y1="525.999" x2="341.5" y2="225.999" stroke="#E7E4DF"/>
<line x1="258.5" y1="525.999" x2="258.5" y2="225.999" stroke="#E7E4DF"/>
<line x1="258" y1="225.499" x2="342" y2="225.499" stroke="#E7E4DF"/>
<line y1="-0.5" x2="300.275" y2="-0.5" transform="matrix(0 -1 0.999998 -0.00206421 299.503 526.236)" stroke="#EFECE7" stroke-dasharray="6 6"/>
<line x1="134.5" y1="472.999" x2="134.5" y2="577.999" stroke="#E7E4DF"/>
<line x1="175.5" y1="472.999" x2="175.5" y2="514.999" stroke="#E7E4DF"/>
<line x1="175" y1="515.499" x2="135" y2="515.499" stroke="#E7E4DF"/>
<line x1="175" y1="514.499" x2="197" y2="514.499" stroke="#E7E4DF"/>
<line x1="197.5" y1="514.999" x2="197.5" y2="577.999" stroke="#E7E4DF"/>
<line x1="134" y1="577.499" x2="197" y2="577.499" stroke="#E7E4DF"/>
<line x1="412" y1="626.499" x2="394" y2="626.499" stroke="#E7E4DF"/>
<line x1="394.5" y1="625.999" x2="394.5" y2="653.999" stroke="#E7E4DF"/>
<line x1="394.494" y1="626.488" x2="391.002" y2="640.455" stroke="#E7E4DF"/>
<line x1="393.522" y1="653.716" x2="390.729" y2="641.844" stroke="#E7E4DF"/>
<line x1="197" y1="638.499" x2="210" y2="638.499" stroke="#E7E4DF"/>
<line x1="210.5" y1="638.999" x2="210.5" y2="653.999" stroke="#E7E4DF"/>
<line x1="210.5" y1="639.999" x2="210.5" y2="651.999" stroke="#E7E4DF"/>
<path d="M244.385 559.18C243.675 559.18 243.035 559.07 242.465 558.85C241.895 558.62 241.41 558.285 241.01 557.845C240.61 557.395 240.3 556.84 240.08 556.18C239.86 555.51 239.75 554.73 239.75 553.84C239.75 552.96 239.86 552.18 240.08 551.5C240.3 550.81 240.61 550.235 241.01 549.775C241.41 549.305 241.895 548.95 242.465 548.71C243.035 548.47 243.675 548.35 244.385 548.35C245.355 548.35 246.155 548.55 246.785 548.95C247.415 549.34 247.92 549.96 248.3 550.81L246.335 551.83C246.195 551.39 245.975 551.04 245.675 550.78C245.385 550.51 244.955 550.375 244.385 550.375C243.715 550.375 243.175 550.595 242.765 551.035C242.365 551.465 242.165 552.095 242.165 552.925V554.605C242.165 555.435 242.365 556.07 242.765 556.51C243.175 556.94 243.715 557.155 244.385 557.155C244.945 557.155 245.39 557.005 245.72 556.705C246.06 556.395 246.31 556.025 246.47 555.595L248.33 556.675C247.94 557.475 247.425 558.095 246.785 558.535C246.155 558.965 245.355 559.18 244.385 559.18Z" fill="#E7E4DF"/>
<path d="M100.605 585L99.855 582.51H96.36L95.61 585H93.3L96.75 574.53H99.57L102.975 585H100.605ZM98.13 576.6H98.055L96.9 580.575H99.3L98.13 576.6Z" fill="#E7E4DF"/>
<path d="M209.155 548.53H214.24C215.11 548.53 215.785 548.775 216.265 549.265C216.755 549.755 217 550.405 217 551.215C217 551.615 216.945 551.955 216.835 552.235C216.735 552.515 216.595 552.745 216.415 552.925C216.245 553.105 216.04 553.24 215.8 553.33C215.57 553.41 215.32 553.455 215.05 553.465V553.555C215.3 553.555 215.56 553.6 215.83 553.69C216.11 553.78 216.365 553.925 216.595 554.125C216.825 554.315 217.015 554.565 217.165 554.875C217.325 555.185 217.405 555.565 217.405 556.015C217.405 556.425 217.335 556.815 217.195 557.185C217.065 557.545 216.88 557.86 216.64 558.13C216.4 558.4 216.115 558.615 215.785 558.775C215.455 558.925 215.095 559 214.705 559H209.155V548.53ZM211.435 557.08H214.06C214.36 557.08 214.595 557 214.765 556.84C214.945 556.67 215.035 556.435 215.035 556.135V555.625C215.035 555.325 214.945 555.095 214.765 554.935C214.595 554.765 214.36 554.68 214.06 554.68H211.435V557.08ZM211.435 552.82H213.7C214 552.82 214.235 552.735 214.405 552.565C214.575 552.395 214.66 552.16 214.66 551.86V551.41C214.66 551.11 214.575 550.875 214.405 550.705C214.235 550.535 214 550.45 213.7 550.45H211.435V552.82Z" fill="#E7E4DF"/>
<path d="M347.155 548.53H351.1C351.79 548.53 352.42 548.64 352.99 548.86C353.56 549.08 354.045 549.41 354.445 549.85C354.845 550.28 355.155 550.825 355.375 551.485C355.595 552.135 355.705 552.895 355.705 553.765C355.705 554.635 355.595 555.4 355.375 556.06C355.155 556.71 354.845 557.255 354.445 557.695C354.045 558.125 353.56 558.45 352.99 558.67C352.42 558.89 351.79 559 351.1 559H347.155V548.53ZM351.1 556.975C351.78 556.975 352.315 556.785 352.705 556.405C353.095 556.025 353.29 555.415 353.29 554.575V552.955C353.29 552.115 353.095 551.505 352.705 551.125C352.315 550.745 351.78 550.555 351.1 550.555H349.435V556.975H351.1Z" fill="#E7E4DF"/>
<path d="M503.155 585V574.53H510.1V576.555H505.435V578.7H509.41V580.71H505.435V585H503.155Z" fill="#E7E4DF"/>
<path d="M381.155 559V548.53H388.28V550.555H383.435V552.7H387.59V554.71H383.435V556.975H388.28V559H381.155Z" fill="#E7E4DF"/>
<rect x="259" y="454" width="83" height="73" rx="1" fill="#FAF8F4" stroke="#D6D3CD"/>
<line x1="300.204" y1="454.103" x2="300.204" y2="526.699" stroke="#EFECE7" stroke-dasharray="6 6"/>
<path d="M291.833 487.532H293.16L294.562 490.952H294.622L296.024 487.532H297.351V492.623H296.307V489.309H296.265L294.947 492.598H294.236L292.919 489.297H292.877V492.623H291.833V487.532ZM298.044 488.419V487.532H302.225V488.419H300.667V492.623H299.603V488.419H298.044ZM305.413 492.623V493.426H302.07V492.623H305.413ZM305.823 492.623V491.847L307.636 490.169C307.79 490.02 307.919 489.886 308.023 489.767C308.129 489.647 308.21 489.53 308.264 489.416C308.319 489.3 308.346 489.175 308.346 489.041C308.346 488.892 308.313 488.763 308.245 488.655C308.177 488.546 308.084 488.462 307.966 488.404C307.848 488.345 307.715 488.315 307.566 488.315C307.41 488.315 307.274 488.346 307.158 488.409C307.042 488.472 306.953 488.563 306.89 488.68C306.827 488.798 306.795 488.938 306.795 489.1H305.774C305.774 488.767 305.849 488.478 306 488.233C306.151 487.988 306.362 487.798 306.634 487.664C306.906 487.529 307.219 487.462 307.573 487.462C307.938 487.462 308.255 487.527 308.525 487.656C308.797 487.784 309.009 487.961 309.159 488.188C309.31 488.415 309.386 488.675 309.386 488.969C309.386 489.161 309.347 489.351 309.271 489.538C309.197 489.725 309.063 489.933 308.871 490.162C308.679 490.389 308.408 490.661 308.058 490.98L307.315 491.708V491.743H309.453V492.623H305.823Z" fill="#65615B"/>
<rect x="259" y="226" width="41" height="75" rx="1" fill="#EDE5D0" stroke="#D6D3CD"/>
<path d="M279.309 262.845H278.221C278.201 262.704 278.16 262.579 278.099 262.469C278.037 262.358 277.959 262.264 277.863 262.186C277.766 262.108 277.655 262.048 277.529 262.007C277.405 261.965 277.27 261.945 277.124 261.945C276.861 261.945 276.631 262.01 276.436 262.141C276.24 262.27 276.089 262.459 275.981 262.708C275.873 262.955 275.819 263.255 275.819 263.608C275.819 263.971 275.873 264.276 275.981 264.523C276.09 264.769 276.243 264.956 276.438 265.082C276.634 265.208 276.86 265.271 277.117 265.271C277.261 265.271 277.394 265.252 277.517 265.214C277.641 265.175 277.752 265.12 277.848 265.047C277.944 264.972 278.023 264.882 278.086 264.776C278.151 264.67 278.196 264.549 278.221 264.413L279.309 264.418C279.281 264.652 279.211 264.877 279.098 265.094C278.987 265.31 278.837 265.503 278.648 265.673C278.461 265.843 278.237 265.977 277.977 266.076C277.718 266.174 277.426 266.223 277.099 266.223C276.645 266.223 276.239 266.12 275.881 265.915C275.525 265.709 275.243 265.412 275.036 265.022C274.831 264.633 274.728 264.161 274.728 263.608C274.728 263.053 274.832 262.58 275.041 262.191C275.25 261.801 275.533 261.505 275.891 261.301C276.249 261.095 276.652 260.993 277.099 260.993C277.394 260.993 277.668 261.034 277.92 261.117C278.173 261.2 278.398 261.321 278.593 261.48C278.789 261.637 278.948 261.83 279.071 262.059C279.195 262.288 279.275 262.55 279.309 262.845ZM279.974 265.258V264.411L282.1 261.062H282.83V262.236H282.398L281.058 264.356V264.396H284.078V265.258H279.974ZM282.418 266.153V265L282.438 264.624V261.062H283.447V266.153H282.418Z" fill="#65615B"/>
<rect x="259" y="302" width="41" height="75" rx="1" fill="#EDE5D0" stroke="#D6D3CD"/>
<path d="M279.309 338.845H278.221C278.201 338.704 278.16 338.579 278.099 338.469C278.037 338.358 277.959 338.264 277.863 338.186C277.766 338.108 277.655 338.048 277.529 338.007C277.405 337.965 277.27 337.945 277.124 337.945C276.861 337.945 276.631 338.01 276.436 338.141C276.24 338.27 276.089 338.459 275.981 338.708C275.873 338.955 275.819 339.255 275.819 339.608C275.819 339.971 275.873 340.276 275.981 340.523C276.09 340.769 276.243 340.956 276.438 341.082C276.634 341.208 276.86 341.271 277.117 341.271C277.261 341.271 277.394 341.252 277.517 341.214C277.641 341.175 277.752 341.12 277.848 341.047C277.944 340.972 278.023 340.882 278.086 340.776C278.151 340.67 278.196 340.549 278.221 340.413L279.309 340.418C279.281 340.652 279.211 340.877 279.098 341.094C278.987 341.31 278.837 341.503 278.648 341.673C278.461 341.843 278.237 341.977 277.977 342.076C277.718 342.174 277.426 342.223 277.099 342.223C276.645 342.223 276.239 342.12 275.881 341.915C275.525 341.709 275.243 341.412 275.036 341.022C274.831 340.633 274.728 340.161 274.728 339.608C274.728 339.053 274.832 338.58 275.041 338.191C275.25 337.801 275.533 337.505 275.891 337.301C276.249 337.095 276.652 336.993 277.099 336.993C277.394 336.993 277.668 337.034 277.92 337.117C278.173 337.2 278.398 337.321 278.593 337.48C278.789 337.637 278.948 337.83 279.071 338.059C279.195 338.288 279.275 338.55 279.309 338.845ZM281.933 342.223C281.562 342.223 281.231 342.159 280.941 342.031C280.653 341.902 280.425 341.725 280.258 341.499C280.092 341.272 280.007 341.011 280.002 340.714H281.085C281.092 340.838 281.133 340.948 281.207 341.042C281.283 341.135 281.385 341.207 281.51 341.258C281.636 341.31 281.778 341.335 281.936 341.335C282.1 341.335 282.245 341.306 282.371 341.248C282.497 341.19 282.595 341.11 282.666 341.007C282.738 340.905 282.773 340.786 282.773 340.652C282.773 340.516 282.735 340.396 282.659 340.291C282.584 340.185 282.477 340.102 282.336 340.043C282.197 339.983 282.031 339.953 281.839 339.953H281.364V339.163H281.839C282.001 339.163 282.144 339.135 282.269 339.078C282.395 339.022 282.492 338.944 282.562 338.845C282.632 338.744 282.666 338.626 282.666 338.492C282.666 338.364 282.636 338.252 282.574 338.156C282.515 338.058 282.43 337.982 282.321 337.927C282.213 337.873 282.087 337.845 281.943 337.845C281.797 337.845 281.664 337.872 281.543 337.925C281.422 337.976 281.325 338.05 281.252 338.146C281.179 338.242 281.14 338.355 281.135 338.484H280.104C280.109 338.191 280.192 337.932 280.355 337.709C280.517 337.485 280.736 337.31 281.011 337.184C281.288 337.057 281.6 336.993 281.948 336.993C282.299 336.993 282.607 337.057 282.87 337.184C283.134 337.312 283.338 337.484 283.484 337.701C283.632 337.917 283.705 338.159 283.703 338.427C283.705 338.712 283.616 338.95 283.437 339.14C283.26 339.331 283.028 339.452 282.743 339.503V339.543C283.118 339.591 283.403 339.721 283.599 339.933C283.796 340.144 283.894 340.407 283.892 340.724C283.894 341.014 283.81 341.272 283.641 341.497C283.473 341.722 283.242 341.9 282.947 342.029C282.652 342.158 282.314 342.223 281.933 342.223Z" fill="#65615B"/>
<rect x="121" y="92.4897" width="138" height="49.1171" fill="#EDE5D0" stroke="#D6D3CD"/>
<path d="M188.818 115.925C188.783 115.804 188.734 115.697 188.672 115.604C188.609 115.51 188.531 115.43 188.44 115.366C188.351 115.3 188.248 115.249 188.132 115.214C188.018 115.179 187.891 115.162 187.752 115.162C187.492 115.162 187.263 115.227 187.066 115.356C186.87 115.485 186.718 115.673 186.608 115.92C186.499 116.165 186.444 116.465 186.444 116.82C186.444 117.175 186.498 117.476 186.606 117.725C186.714 117.973 186.866 118.163 187.063 118.294C187.26 118.423 187.493 118.488 187.762 118.488C188.005 118.488 188.213 118.445 188.386 118.359C188.56 118.271 188.692 118.147 188.783 117.988C188.876 117.829 188.923 117.641 188.923 117.424L189.141 117.456H187.829V116.646H189.959V117.287C189.959 117.735 189.865 118.119 189.676 118.441C189.487 118.761 189.227 119.008 188.895 119.182C188.564 119.354 188.184 119.44 187.757 119.44C187.279 119.44 186.86 119.335 186.499 119.124C186.138 118.912 185.856 118.611 185.654 118.222C185.453 117.831 185.353 117.367 185.353 116.83C185.353 116.417 185.413 116.049 185.532 115.726C185.653 115.401 185.822 115.126 186.039 114.901C186.256 114.676 186.509 114.504 186.797 114.386C187.086 114.269 187.398 114.21 187.734 114.21C188.023 114.21 188.291 114.252 188.54 114.337C188.788 114.42 189.009 114.537 189.201 114.69C189.395 114.842 189.553 115.024 189.676 115.234C189.798 115.443 189.877 115.673 189.912 115.925H188.818ZM192.953 114.28V119.37H191.876V115.301H191.847L190.681 116.032V115.077L191.941 114.28H192.953Z" fill="#65615B"/>
<rect x="259" y="92.4897" width="138" height="49.1171" fill="#EDE5D0" stroke="#D6D3CD"/>
<path d="M327.818 115.925C327.783 115.804 327.734 115.697 327.672 115.604C327.609 115.51 327.531 115.43 327.44 115.366C327.351 115.3 327.248 115.249 327.132 115.214C327.018 115.179 326.891 115.162 326.752 115.162C326.492 115.162 326.263 115.227 326.066 115.356C325.87 115.485 325.718 115.673 325.608 115.92C325.499 116.165 325.444 116.465 325.444 116.82C325.444 117.175 325.498 117.476 325.606 117.725C325.714 117.973 325.866 118.163 326.063 118.294C326.26 118.423 326.493 118.488 326.762 118.488C327.005 118.488 327.213 118.445 327.386 118.359C327.56 118.271 327.692 118.147 327.783 117.988C327.876 117.829 327.923 117.641 327.923 117.424L328.141 117.456H326.829V116.646H328.959V117.287C328.959 117.735 328.865 118.119 328.676 118.441C328.487 118.761 328.227 119.008 327.895 119.182C327.564 119.354 327.184 119.44 326.757 119.44C326.279 119.44 325.86 119.335 325.499 119.124C325.138 118.912 324.856 118.611 324.654 118.222C324.453 117.831 324.353 117.367 324.353 116.83C324.353 116.417 324.413 116.049 324.532 115.726C324.653 115.401 324.822 115.126 325.039 114.901C325.256 114.676 325.509 114.504 325.797 114.386C326.086 114.269 326.398 114.21 326.734 114.21C327.023 114.21 327.291 114.252 327.54 114.337C327.788 114.42 328.009 114.537 328.201 114.69C328.395 114.842 328.553 115.024 328.676 115.234C328.798 115.443 328.877 115.673 328.912 115.925H327.818ZM329.738 119.37V118.595L331.55 116.917C331.704 116.768 331.833 116.634 331.938 116.514C332.044 116.395 332.124 116.278 332.179 116.164C332.234 116.048 332.261 115.923 332.261 115.788C332.261 115.639 332.227 115.511 332.159 115.403C332.091 115.294 331.998 115.21 331.881 115.152C331.763 115.092 331.63 115.063 331.48 115.063C331.325 115.063 331.189 115.094 331.073 115.157C330.957 115.22 330.867 115.31 330.804 115.428C330.741 115.546 330.71 115.686 330.71 115.848H329.688C329.688 115.515 329.764 115.226 329.914 114.981C330.065 114.735 330.276 114.546 330.548 114.411C330.82 114.277 331.133 114.21 331.488 114.21C331.852 114.21 332.17 114.275 332.44 114.404C332.712 114.531 332.923 114.709 333.074 114.936C333.225 115.163 333.3 115.423 333.3 115.716C333.3 115.909 333.262 116.098 333.186 116.286C333.111 116.473 332.978 116.681 332.785 116.91C332.593 117.137 332.322 117.409 331.973 117.727L331.229 118.456V118.49H333.367V119.37H329.738Z" fill="#65615B"/>
<rect x="397" y="92.4897" width="138" height="49.1171" fill="#EDE5D0" stroke="#D6D3CD"/>
<path d="M466.818 115.925C466.783 115.804 466.734 115.697 466.672 115.604C466.609 115.51 466.531 115.43 466.44 115.366C466.351 115.3 466.248 115.249 466.132 115.214C466.018 115.179 465.891 115.162 465.752 115.162C465.492 115.162 465.263 115.227 465.066 115.356C464.87 115.485 464.718 115.673 464.608 115.92C464.499 116.165 464.444 116.465 464.444 116.82C464.444 117.175 464.498 117.476 464.606 117.725C464.714 117.973 464.866 118.163 465.063 118.294C465.26 118.423 465.493 118.488 465.762 118.488C466.005 118.488 466.213 118.445 466.386 118.359C466.56 118.271 466.692 118.147 466.783 117.988C466.876 117.829 466.923 117.641 466.923 117.424L467.141 117.456H465.829V116.646H467.959V117.287C467.959 117.735 467.865 118.119 467.676 118.441C467.487 118.761 467.227 119.008 466.895 119.182C466.564 119.354 466.184 119.44 465.757 119.44C465.279 119.44 464.86 119.335 464.499 119.124C464.138 118.912 463.856 118.611 463.654 118.222C463.453 117.831 463.353 117.367 463.353 116.83C463.353 116.417 463.413 116.049 463.532 115.726C463.653 115.401 463.822 115.126 464.039 114.901C464.256 114.676 464.509 114.504 464.797 114.386C465.086 114.269 465.398 114.21 465.734 114.21C466.023 114.21 466.291 114.252 466.54 114.337C466.788 114.42 467.009 114.537 467.201 114.69C467.395 114.842 467.553 115.024 467.676 115.234C467.798 115.443 467.877 115.673 467.912 115.925H466.818ZM470.62 119.44C470.248 119.44 469.918 119.376 469.628 119.249C469.339 119.119 469.112 118.942 468.944 118.717C468.778 118.49 468.693 118.228 468.688 117.931H469.772C469.779 118.055 469.819 118.165 469.894 118.259C469.97 118.352 470.071 118.424 470.197 118.476C470.323 118.527 470.465 118.553 470.622 118.553C470.786 118.553 470.931 118.524 471.057 118.466C471.183 118.408 471.282 118.327 471.353 118.225C471.424 118.122 471.46 118.003 471.46 117.869C471.46 117.733 471.422 117.613 471.345 117.509C471.271 117.403 471.163 117.32 471.022 117.26C470.883 117.2 470.717 117.171 470.525 117.171H470.05V116.38H470.525C470.688 116.38 470.831 116.352 470.955 116.296C471.081 116.239 471.179 116.161 471.248 116.062C471.318 115.961 471.353 115.843 471.353 115.709C471.353 115.581 471.322 115.469 471.261 115.373C471.201 115.276 471.117 115.199 471.007 115.145C470.9 115.09 470.774 115.063 470.63 115.063C470.484 115.063 470.35 115.089 470.229 115.142C470.108 115.193 470.011 115.267 469.938 115.363C469.866 115.459 469.827 115.572 469.822 115.701H468.79C468.795 115.408 468.879 115.15 469.041 114.926C469.204 114.702 469.422 114.527 469.697 114.401C469.974 114.274 470.286 114.21 470.634 114.21C470.986 114.21 471.293 114.274 471.557 114.401C471.82 114.529 472.025 114.701 472.171 114.918C472.318 115.134 472.391 115.376 472.389 115.644C472.391 115.929 472.302 116.167 472.123 116.358C471.946 116.548 471.715 116.669 471.43 116.721V116.76C471.804 116.808 472.09 116.939 472.285 117.151C472.482 117.361 472.58 117.625 472.578 117.941C472.58 118.231 472.496 118.489 472.327 118.714C472.16 118.94 471.929 119.117 471.634 119.246C471.339 119.375 471.001 119.44 470.62 119.44Z" fill="#65615B"/>
<rect x="259" y="378" width="41" height="75" rx="1" fill="#EDE5D0" stroke="#D6D3CD"/>
<path d="M279.309 414.845H278.221C278.201 414.704 278.16 414.579 278.099 414.469C278.037 414.358 277.959 414.264 277.863 414.186C277.766 414.108 277.655 414.048 277.529 414.007C277.405 413.966 277.27 413.945 277.124 413.945C276.861 413.945 276.631 414.01 276.436 414.141C276.24 414.27 276.089 414.459 275.981 414.708C275.873 414.955 275.819 415.255 275.819 415.608C275.819 415.971 275.873 416.276 275.981 416.523C276.09 416.769 276.243 416.956 276.438 417.082C276.634 417.208 276.86 417.271 277.117 417.271C277.261 417.271 277.394 417.252 277.517 417.214C277.641 417.175 277.752 417.12 277.848 417.047C277.944 416.972 278.023 416.882 278.086 416.776C278.151 416.67 278.196 416.549 278.221 416.413L279.309 416.418C279.281 416.652 279.211 416.877 279.098 417.094C278.987 417.31 278.837 417.503 278.648 417.673C278.461 417.843 278.237 417.977 277.977 418.076C277.718 418.174 277.426 418.223 277.099 418.223C276.645 418.223 276.239 418.12 275.881 417.915C275.525 417.709 275.243 417.412 275.036 417.022C274.831 416.633 274.728 416.161 274.728 415.608C274.728 415.053 274.832 414.58 275.041 414.191C275.25 413.801 275.533 413.505 275.891 413.301C276.249 413.095 276.652 412.993 277.099 412.993C277.394 412.993 277.668 413.034 277.92 413.117C278.173 413.2 278.398 413.321 278.593 413.48C278.789 413.637 278.948 413.83 279.071 414.059C279.195 414.288 279.275 414.55 279.309 414.845ZM280.051 418.153V417.378L281.863 415.7C282.018 415.551 282.147 415.416 282.251 415.297C282.357 415.178 282.438 415.061 282.492 414.947C282.547 414.831 282.574 414.705 282.574 414.571C282.574 414.422 282.54 414.294 282.472 414.186C282.405 414.077 282.312 413.993 282.194 413.935C282.076 413.875 281.943 413.845 281.794 413.845C281.638 413.845 281.502 413.877 281.386 413.94C281.27 414.003 281.181 414.093 281.118 414.211C281.055 414.328 281.023 414.468 281.023 414.631H280.002C280.002 414.298 280.077 414.009 280.228 413.763C280.379 413.518 280.59 413.328 280.862 413.194C281.133 413.06 281.447 412.993 281.801 412.993C282.166 412.993 282.483 413.057 282.753 413.187C283.025 413.314 283.236 413.492 283.387 413.719C283.538 413.946 283.613 414.206 283.613 414.499C283.613 414.691 283.575 414.881 283.499 415.068C283.425 415.256 283.291 415.464 283.099 415.692C282.907 415.919 282.636 416.192 282.286 416.51L281.543 417.238V417.273H283.681V418.153H280.051Z" fill="#65615B"/>
<rect x="301" y="226" width="41" height="75" rx="1" fill="#EDE5D0" stroke="#D6D3CD"/>
<path d="M318.622 266.153H316.817V261.062H318.637C319.149 261.062 319.59 261.164 319.96 261.368C320.329 261.57 320.613 261.861 320.812 262.241C321.013 262.62 321.113 263.074 321.113 263.603C321.113 264.133 321.013 264.589 320.812 264.97C320.613 265.351 320.327 265.644 319.955 265.847C319.583 266.051 319.139 266.153 318.622 266.153ZM317.894 265.231H318.577C318.896 265.231 319.163 265.175 319.38 265.062C319.599 264.948 319.763 264.771 319.873 264.532C319.984 264.292 320.039 263.982 320.039 263.603C320.039 263.227 319.984 262.919 319.873 262.681C319.763 262.442 319.6 262.266 319.383 262.154C319.166 262.041 318.898 261.985 318.58 261.985H317.894V265.231ZM321.803 265.258V264.411L323.929 261.062H324.66V262.236H324.227L322.887 264.356V264.396H325.907V265.258H321.803ZM324.247 266.153V265L324.267 264.624V261.062H325.276V266.153H324.247Z" fill="#65615B"/>
<rect x="301" y="302" width="41" height="75" rx="1" fill="#EDE5D0" stroke="#D6D3CD"/>
<path d="M318.622 342.153H316.817V337.062H318.637C319.149 337.062 319.59 337.164 319.96 337.368C320.329 337.57 320.613 337.861 320.812 338.241C321.013 338.62 321.113 339.074 321.113 339.603C321.113 340.133 321.013 340.589 320.812 340.97C320.613 341.351 320.327 341.644 319.955 341.847C319.583 342.051 319.139 342.153 318.622 342.153ZM317.894 341.231H318.577C318.896 341.231 319.163 341.175 319.38 341.062C319.599 340.948 319.763 340.771 319.873 340.532C319.984 340.292 320.039 339.982 320.039 339.603C320.039 339.227 319.984 338.919 319.873 338.681C319.763 338.442 319.6 338.266 319.383 338.154C319.166 338.041 318.898 337.985 318.58 337.985H317.894V341.231ZM323.762 342.223C323.391 342.223 323.06 342.159 322.77 342.031C322.482 341.902 322.254 341.725 322.087 341.499C321.921 341.272 321.836 341.011 321.831 340.714H322.914C322.921 340.838 322.962 340.948 323.036 341.042C323.113 341.135 323.214 341.207 323.34 341.258C323.466 341.31 323.607 341.335 323.765 341.335C323.929 341.335 324.074 341.306 324.2 341.248C324.326 341.19 324.424 341.11 324.495 341.007C324.567 340.905 324.602 340.786 324.602 340.652C324.602 340.516 324.564 340.396 324.488 340.291C324.413 340.185 324.306 340.102 324.165 340.043C324.026 339.983 323.86 339.953 323.668 339.953H323.193V339.163H323.668C323.83 339.163 323.973 339.135 324.098 339.078C324.224 339.022 324.321 338.944 324.391 338.845C324.461 338.744 324.495 338.626 324.495 338.492C324.495 338.364 324.465 338.252 324.403 338.156C324.344 338.058 324.259 337.982 324.15 337.927C324.042 337.873 323.916 337.845 323.772 337.845C323.626 337.845 323.493 337.872 323.372 337.925C323.251 337.976 323.154 338.05 323.081 338.146C323.008 338.242 322.969 338.355 322.964 338.484H321.933C321.938 338.191 322.021 337.932 322.184 337.709C322.346 337.485 322.565 337.31 322.84 337.184C323.117 337.057 323.429 336.993 323.777 336.993C324.128 336.993 324.436 337.057 324.699 337.184C324.963 337.312 325.167 337.484 325.313 337.701C325.461 337.917 325.534 338.159 325.532 338.427C325.534 338.712 325.445 338.95 325.266 339.14C325.089 339.331 324.858 339.452 324.573 339.503V339.543C324.947 339.591 325.232 339.721 325.428 339.933C325.625 340.144 325.723 340.407 325.721 340.724C325.723 341.014 325.639 341.272 325.47 341.497C325.303 341.722 325.071 341.9 324.776 342.029C324.481 342.158 324.143 342.223 323.762 342.223Z" fill="#65615B"/>
<rect x="301" y="378" width="41" height="75" rx="1" fill="#EDE5D0" stroke="#D6D3CD"/>
<path d="M318.622 418.153H316.817V413.062H318.637C319.149 413.062 319.59 413.164 319.96 413.368C320.329 413.57 320.613 413.861 320.812 414.241C321.013 414.62 321.113 415.074 321.113 415.603C321.113 416.133 321.013 416.589 320.812 416.97C320.613 417.351 320.327 417.644 319.955 417.847C319.583 418.051 319.139 418.153 318.622 418.153ZM317.894 417.231H318.577C318.896 417.231 319.163 417.175 319.38 417.062C319.599 416.948 319.763 416.771 319.873 416.533C319.984 416.292 320.039 415.982 320.039 415.603C320.039 415.227 319.984 414.919 319.873 414.681C319.763 414.442 319.6 414.266 319.383 414.154C319.166 414.041 318.898 413.985 318.58 413.985H317.894V417.231ZM321.88 418.153V417.378L323.693 415.7C323.847 415.551 323.976 415.416 324.08 415.297C324.186 415.178 324.267 415.061 324.321 414.947C324.376 414.831 324.403 414.705 324.403 414.571C324.403 414.422 324.37 414.294 324.302 414.186C324.234 414.077 324.141 413.993 324.023 413.935C323.906 413.875 323.772 413.845 323.623 413.845C323.467 413.845 323.331 413.877 323.215 413.94C323.099 414.003 323.01 414.093 322.947 414.211C322.884 414.328 322.852 414.468 322.852 414.631H321.831C321.831 414.298 321.906 414.009 322.057 413.763C322.208 413.518 322.419 413.328 322.691 413.194C322.963 413.06 323.276 412.993 323.63 412.993C323.995 412.993 324.312 413.057 324.582 413.187C324.854 413.314 325.066 413.492 325.216 413.719C325.367 413.946 325.443 414.206 325.443 414.499C325.443 414.691 325.404 414.881 325.328 415.068C325.254 415.256 325.12 415.464 324.928 415.692C324.736 415.919 324.465 416.192 324.115 416.51L323.372 417.238V417.273H325.51V418.153H321.88Z" fill="#65615B"/>
<line x1="120.5" y1="173.001" x2="120.5" y2="473.001" stroke="#E7E4DF"/>
<line x1="120.5" y1="173" x2="120.5" y2="473" stroke="#E7E4DF"/>
<line x1="204" y1="473.501" x2="120" y2="473.501" stroke="#E7E4DF"/>
<line y1="-0.5" x2="300.275" y2="-0.5" transform="matrix(0 1 -0.999998 0.00206421 162.497 172.764)" stroke="#EFECE7" stroke-dasharray="6 6"/>
<rect x="203" y="245" width="83" height="73" rx="1" transform="rotate(180 203 245)" fill="#FAF8F4" stroke="#D6D3CD"/>
<line x1="161.796" y1="244.897" x2="161.796" y2="172.301" stroke="#EFECE7" stroke-dasharray="6 6"/>
<path d="M153.442 204.909H154.77L156.172 208.33H156.232L157.634 204.909H158.961V210H157.917V206.686H157.875L156.557 209.975H155.846L154.529 206.674H154.487V210H153.442V204.909ZM159.654 205.797V204.909H163.835V205.797H162.276V210H161.212V205.797H159.654ZM167.023 210V210.803H163.68V210H167.023ZM168.889 204.909V210H167.813V205.931H167.783L166.617 206.662V205.707L167.877 204.909H168.889Z" fill="#65615B"/>
<rect x="203" y="473" width="41" height="75" rx="1" transform="rotate(180 203 473)" fill="#EDE5D0" stroke="#D6D3CD"/>
<path d="M177.442 439V433.909H179.481C179.855 433.909 180.168 433.965 180.418 434.076C180.668 434.187 180.856 434.341 180.982 434.538C181.108 434.734 181.171 434.959 181.171 435.214C181.171 435.413 181.131 435.588 181.052 435.739C180.972 435.888 180.863 436.01 180.724 436.107C180.586 436.201 180.429 436.268 180.251 436.308V436.358C180.445 436.366 180.627 436.421 180.796 436.522C180.967 436.623 181.105 436.764 181.211 436.947C181.317 437.127 181.37 437.343 181.37 437.593C181.37 437.863 181.303 438.104 181.169 438.316C181.036 438.527 180.84 438.693 180.58 438.816C180.319 438.939 179.999 439 179.618 439H177.442ZM178.519 438.12H179.396C179.696 438.12 179.915 438.063 180.053 437.949C180.19 437.833 180.259 437.678 180.259 437.486C180.259 437.345 180.225 437.221 180.157 437.113C180.089 437.006 179.992 436.921 179.866 436.86C179.742 436.798 179.594 436.768 179.421 436.768H178.519V438.12ZM178.519 436.039H179.317C179.464 436.039 179.595 436.014 179.71 435.962C179.826 435.909 179.917 435.835 179.983 435.739C180.051 435.643 180.085 435.527 180.085 435.393C180.085 435.209 180.019 435.061 179.888 434.948C179.759 434.835 179.575 434.779 179.337 434.779H178.519V436.039ZM184.255 433.909V439H183.179V434.931H183.149L181.983 435.662V434.707L183.244 433.909H184.255Z" fill="#65615B"/>
<rect x="203" y="397" width="41" height="75" rx="1" transform="rotate(180 203 397)" fill="#EDE5D0" stroke="#D6D3CD"/>
<path d="M177.442 363V357.909H179.481C179.855 357.909 180.168 357.965 180.418 358.076C180.668 358.187 180.856 358.341 180.982 358.538C181.108 358.734 181.171 358.959 181.171 359.214C181.171 359.413 181.131 359.588 181.052 359.739C180.972 359.888 180.863 360.01 180.724 360.107C180.586 360.201 180.429 360.268 180.251 360.308V360.358C180.445 360.366 180.627 360.421 180.796 360.522C180.967 360.623 181.105 360.764 181.211 360.947C181.317 361.127 181.37 361.343 181.37 361.593C181.37 361.863 181.303 362.104 181.169 362.316C181.036 362.527 180.84 362.693 180.58 362.816C180.319 362.939 179.999 363 179.618 363H177.442ZM178.519 362.12H179.396C179.696 362.12 179.915 362.063 180.053 361.949C180.19 361.833 180.259 361.678 180.259 361.486C180.259 361.345 180.225 361.221 180.157 361.113C180.089 361.006 179.992 360.921 179.866 360.86C179.742 360.798 179.594 360.768 179.421 360.768H178.519V362.12ZM178.519 360.039H179.317C179.464 360.039 179.595 360.014 179.71 359.962C179.826 359.909 179.917 359.835 179.983 359.739C180.051 359.643 180.085 359.527 180.085 359.393C180.085 359.209 180.019 359.061 179.888 358.948C179.759 358.835 179.575 358.779 179.337 358.779H178.519V360.039ZM182.041 363V362.224L183.853 360.547C184.007 360.397 184.136 360.263 184.241 360.144C184.347 360.025 184.427 359.908 184.482 359.793C184.536 359.677 184.564 359.552 184.564 359.418C184.564 359.269 184.53 359.14 184.462 359.033C184.394 358.923 184.301 358.84 184.183 358.782C184.066 358.722 183.932 358.692 183.783 358.692C183.627 358.692 183.491 358.724 183.375 358.787C183.259 358.85 183.17 358.94 183.107 359.058C183.044 359.175 183.013 359.315 183.013 359.478H181.991C181.991 359.145 182.066 358.855 182.217 358.61C182.368 358.365 182.579 358.175 182.851 358.041C183.123 357.907 183.436 357.839 183.791 357.839C184.155 357.839 184.473 357.904 184.743 358.033C185.014 358.161 185.226 358.338 185.377 358.565C185.527 358.792 185.603 359.053 185.603 359.346C185.603 359.538 185.565 359.728 185.488 359.915C185.414 360.102 185.28 360.31 185.088 360.539C184.896 360.766 184.625 361.039 184.275 361.357L183.532 362.085V362.12H185.67V363H182.041Z" fill="#65615B"/>
<rect x="203" y="321" width="41" height="75" rx="1" transform="rotate(180 203 321)" fill="#EDE5D0" stroke="#D6D3CD"/>
<path d="M177.442 286V280.909H179.481C179.855 280.909 180.168 280.965 180.418 281.076C180.668 281.187 180.856 281.341 180.982 281.538C181.108 281.734 181.171 281.959 181.171 282.214C181.171 282.413 181.131 282.588 181.052 282.739C180.972 282.888 180.863 283.01 180.724 283.107C180.586 283.201 180.429 283.268 180.251 283.308V283.358C180.445 283.366 180.627 283.421 180.796 283.522C180.967 283.623 181.105 283.764 181.211 283.947C181.317 284.127 181.37 284.343 181.37 284.593C181.37 284.863 181.303 285.104 181.169 285.316C181.036 285.527 180.84 285.693 180.58 285.816C180.319 285.939 179.999 286 179.618 286H177.442ZM178.519 285.12H179.396C179.696 285.12 179.915 285.063 180.053 284.949C180.19 284.833 180.259 284.678 180.259 284.486C180.259 284.345 180.225 284.221 180.157 284.113C180.089 284.006 179.992 283.921 179.866 283.86C179.742 283.798 179.594 283.768 179.421 283.768H178.519V285.12ZM178.519 283.039H179.317C179.464 283.039 179.595 283.014 179.71 282.962C179.826 282.909 179.917 282.835 179.983 282.739C180.051 282.643 180.085 282.527 180.085 282.393C180.085 282.209 180.019 282.061 179.888 281.948C179.759 281.835 179.575 281.779 179.337 281.779H178.519V283.039ZM183.922 286.07C183.551 286.07 183.22 286.006 182.93 285.878C182.642 285.749 182.414 285.572 182.247 285.346C182.081 285.119 181.996 284.857 181.991 284.561H183.075C183.081 284.685 183.122 284.794 183.196 284.889C183.273 284.982 183.374 285.054 183.5 285.105C183.626 285.156 183.767 285.182 183.925 285.182C184.089 285.182 184.234 285.153 184.36 285.095C184.486 285.037 184.584 284.957 184.656 284.854C184.727 284.751 184.763 284.633 184.763 284.499C184.763 284.363 184.724 284.243 184.648 284.138C184.574 284.032 184.466 283.949 184.325 283.89C184.186 283.83 184.02 283.8 183.828 283.8H183.353V283.01H183.828C183.99 283.01 184.134 282.981 184.258 282.925C184.384 282.869 184.482 282.791 184.551 282.691C184.621 282.59 184.656 282.473 184.656 282.338C184.656 282.211 184.625 282.099 184.564 282.003C184.504 281.905 184.419 281.829 184.31 281.774C184.202 281.719 184.076 281.692 183.932 281.692C183.786 281.692 183.653 281.719 183.532 281.772C183.411 281.823 183.314 281.897 183.241 281.993C183.168 282.089 183.129 282.202 183.124 282.331H182.093C182.098 282.038 182.181 281.779 182.344 281.555C182.506 281.332 182.725 281.157 183 281.031C183.277 280.903 183.589 280.839 183.937 280.839C184.289 280.839 184.596 280.903 184.859 281.031C185.123 281.158 185.328 281.331 185.473 281.548C185.621 281.763 185.694 282.005 185.692 282.274C185.694 282.559 185.605 282.797 185.426 282.987C185.249 283.178 185.018 283.299 184.733 283.35V283.39C185.107 283.438 185.392 283.568 185.588 283.78C185.785 283.991 185.883 284.254 185.881 284.571C185.883 284.861 185.799 285.118 185.63 285.344C185.463 285.569 185.232 285.746 184.937 285.876C184.642 286.005 184.303 286.07 183.922 286.07Z" fill="#65615B"/>
<rect x="161" y="473" width="41" height="75" rx="1" transform="rotate(180 161 473)" fill="#EDE5D0" stroke="#D6D3CD"/>
<path d="M137.32 439H136.167L137.924 433.909H139.311L141.066 439H139.913L138.637 435.072H138.598L137.32 439ZM137.248 436.999H139.972V437.839H137.248V436.999ZM143.625 433.909V439H142.548V434.931H142.518L141.353 435.662V434.707L142.613 433.909H143.625Z" fill="#65615B"/>
<rect x="161" y="397" width="41" height="75" rx="1" transform="rotate(180 161 397)" fill="#EDE5D0" stroke="#D6D3CD"/>
<path d="M136.695 363.153H135.542L137.299 358.062H138.686L140.441 363.153H139.288L138.012 359.226H137.973L136.695 363.153ZM136.623 361.152H139.347V361.992H136.623V361.152ZM141.024 363.153V362.378L142.836 360.7C142.99 360.551 143.119 360.416 143.224 360.297C143.33 360.178 143.41 360.061 143.465 359.947C143.52 359.831 143.547 359.705 143.547 359.571C143.547 359.422 143.513 359.294 143.445 359.186C143.377 359.077 143.284 358.993 143.167 358.935C143.049 358.875 142.916 358.845 142.767 358.845C142.611 358.845 142.475 358.877 142.359 358.94C142.243 359.003 142.153 359.093 142.09 359.211C142.027 359.328 141.996 359.468 141.996 359.631H140.974C140.974 359.298 141.05 359.009 141.2 358.763C141.351 358.518 141.563 358.328 141.834 358.194C142.106 358.06 142.419 357.993 142.774 357.993C143.139 357.993 143.456 358.057 143.726 358.187C143.998 358.314 144.209 358.492 144.36 358.719C144.511 358.946 144.586 359.206 144.586 359.499C144.586 359.691 144.548 359.881 144.472 360.068C144.397 360.256 144.264 360.464 144.072 360.692C143.879 360.919 143.608 361.192 143.259 361.51L142.515 362.238V362.273H144.653V363.153H141.024Z" fill="#65615B"/>
<rect x="161" y="321" width="41" height="75" rx="1" transform="rotate(180 161 321)" fill="#EDE5D0" stroke="#D6D3CD"/>
<path d="M137.32 286H136.167L137.924 280.909H139.311L141.066 286H139.913L138.637 282.072H138.598L137.32 286ZM137.248 283.999H139.972V284.839H137.248V283.999ZM143.531 286.07C143.16 286.07 142.829 286.006 142.539 285.878C142.251 285.749 142.023 285.572 141.855 285.346C141.69 285.119 141.604 284.857 141.599 284.561H142.683C142.69 284.685 142.73 284.794 142.805 284.889C142.881 284.982 142.982 285.054 143.108 285.105C143.234 285.156 143.376 285.182 143.533 285.182C143.697 285.182 143.842 285.153 143.968 285.095C144.094 285.037 144.193 284.957 144.264 284.854C144.335 284.751 144.371 284.633 144.371 284.499C144.371 284.363 144.333 284.243 144.257 284.138C144.182 284.032 144.074 283.949 143.933 283.89C143.794 283.83 143.628 283.8 143.436 283.8H142.961V283.01H143.436C143.599 283.01 143.742 282.981 143.866 282.925C143.992 282.869 144.09 282.791 144.16 282.691C144.229 282.59 144.264 282.473 144.264 282.338C144.264 282.211 144.233 282.099 144.172 282.003C144.112 281.905 144.028 281.829 143.919 281.774C143.811 281.719 143.685 281.692 143.541 281.692C143.395 281.692 143.261 281.719 143.14 281.772C143.019 281.823 142.923 281.897 142.85 281.993C142.777 282.089 142.738 282.202 142.733 282.331H141.701C141.706 282.038 141.79 281.779 141.952 281.555C142.115 281.332 142.333 281.157 142.608 281.031C142.885 280.903 143.198 280.839 143.546 280.839C143.897 280.839 144.204 280.903 144.468 281.031C144.731 281.158 144.936 281.331 145.082 281.548C145.229 281.763 145.302 282.005 145.301 282.274C145.302 282.559 145.214 282.797 145.035 282.987C144.857 283.178 144.626 283.299 144.341 283.35V283.39C144.716 283.438 145.001 283.568 145.196 283.78C145.393 283.991 145.491 284.254 145.49 284.571C145.491 284.861 145.407 285.118 145.238 285.344C145.071 285.569 144.84 285.746 144.545 285.876C144.25 286.005 143.912 286.07 143.531 286.07Z" fill="#65615B"/>
<line x1="204" y1="473.501" x2="120" y2="473.501" stroke="#E7E4DF"/>
<rect x="203" y="245" width="83" height="73" rx="1" transform="rotate(180 203 245)" fill="#FAF8F4" stroke="#D6D3CD"/>
<line x1="161.796" y1="244.897" x2="161.796" y2="172.301" stroke="#EFECE7" stroke-dasharray="6 6"/>
<path d="M153.442 204.909H154.77L156.172 208.33H156.232L157.634 204.909H158.961V210H157.917V206.686H157.875L156.557 209.975H155.846L154.529 206.674H154.487V210H153.442V204.909ZM159.654 205.797V204.909H163.835V205.797H162.276V210H161.212V205.797H159.654ZM167.023 210V210.803H163.68V210H167.023ZM168.889 204.909V210H167.813V205.931H167.783L166.617 206.662V205.707L167.877 204.909H168.889Z" fill="#65615B"/>
<rect x="203" y="473" width="41" height="75" rx="1" transform="rotate(180 203 473)" fill="#EDE5D0" stroke="#D6D3CD"/>
<path d="M177.442 439V433.909H179.481C179.855 433.909 180.168 433.965 180.418 434.076C180.668 434.187 180.856 434.341 180.982 434.538C181.108 434.734 181.171 434.959 181.171 435.214C181.171 435.413 181.131 435.588 181.052 435.739C180.972 435.888 180.863 436.01 180.724 436.107C180.586 436.201 180.429 436.268 180.251 436.308V436.358C180.445 436.366 180.627 436.421 180.796 436.522C180.967 436.623 181.105 436.764 181.211 436.947C181.317 437.127 181.37 437.343 181.37 437.593C181.37 437.863 181.303 438.104 181.169 438.316C181.036 438.527 180.84 438.693 180.58 438.816C180.319 438.939 179.999 439 179.618 439H177.442ZM178.519 438.12H179.396C179.696 438.12 179.915 438.063 180.053 437.949C180.19 437.833 180.259 437.678 180.259 437.486C180.259 437.345 180.225 437.221 180.157 437.113C180.089 437.006 179.992 436.921 179.866 436.86C179.742 436.798 179.594 436.768 179.421 436.768H178.519V438.12ZM178.519 436.039H179.317C179.464 436.039 179.595 436.014 179.71 435.962C179.826 435.909 179.917 435.835 179.983 435.739C180.051 435.643 180.085 435.527 180.085 435.393C180.085 435.209 180.019 435.061 179.888 434.948C179.759 434.835 179.575 434.779 179.337 434.779H178.519V436.039ZM184.255 433.909V439H183.179V434.931H183.149L181.983 435.662V434.707L183.244 433.909H184.255Z" fill="#65615B"/>
<rect x="203" y="321" width="41" height="75" rx="1" transform="rotate(180 203 321)" fill="#EDE5D0" stroke="#D6D3CD"/>
<path d="M177.442 286V280.909H179.481C179.855 280.909 180.168 280.965 180.418 281.076C180.668 281.187 180.856 281.341 180.982 281.538C181.108 281.734 181.171 281.959 181.171 282.214C181.171 282.413 181.131 282.588 181.052 282.739C180.972 282.888 180.863 283.01 180.724 283.107C180.586 283.201 180.429 283.268 180.251 283.308V283.358C180.445 283.366 180.627 283.421 180.796 283.522C180.967 283.623 181.105 283.764 181.211 283.947C181.317 284.127 181.37 284.343 181.37 284.593C181.37 284.863 181.303 285.104 181.169 285.316C181.036 285.527 180.84 285.693 180.58 285.816C180.319 285.939 179.999 286 179.618 286H177.442ZM178.519 285.12H179.396C179.696 285.12 179.915 285.063 180.053 284.949C180.19 284.833 180.259 284.678 180.259 284.486C180.259 284.345 180.225 284.221 180.157 284.113C180.089 284.006 179.992 283.921 179.866 283.86C179.742 283.798 179.594 283.768 179.421 283.768H178.519V285.12ZM178.519 283.039H179.317C179.464 283.039 179.595 283.014 179.71 282.962C179.826 282.909 179.917 282.835 179.983 282.739C180.051 282.643 180.085 282.527 180.085 282.393C180.085 282.209 180.019 282.061 179.888 281.948C179.759 281.835 179.575 281.779 179.337 281.779H178.519V283.039ZM183.922 286.07C183.551 286.07 183.22 286.006 182.93 285.878C182.642 285.749 182.414 285.572 182.247 285.346C182.081 285.119 181.996 284.857 181.991 284.561H183.075C183.081 284.685 183.122 284.794 183.196 284.889C183.273 284.982 183.374 285.054 183.5 285.105C183.626 285.156 183.767 285.182 183.925 285.182C184.089 285.182 184.234 285.153 184.36 285.095C184.486 285.037 184.584 284.957 184.656 284.854C184.727 284.751 184.763 284.633 184.763 284.499C184.763 284.363 184.724 284.243 184.648 284.138C184.574 284.032 184.466 283.949 184.325 283.89C184.186 283.83 184.02 283.8 183.828 283.8H183.353V283.01H183.828C183.99 283.01 184.134 282.981 184.258 282.925C184.384 282.869 184.482 282.791 184.551 282.691C184.621 282.59 184.656 282.473 184.656 282.338C184.656 282.211 184.625 282.099 184.564 282.003C184.504 281.905 184.419 281.829 184.31 281.774C184.202 281.719 184.076 281.692 183.932 281.692C183.786 281.692 183.653 281.719 183.532 281.772C183.411 281.823 183.314 281.897 183.241 281.993C183.168 282.089 183.129 282.202 183.124 282.331H182.093C182.098 282.038 182.181 281.779 182.344 281.555C182.506 281.332 182.725 281.157 183 281.031C183.277 280.903 183.589 280.839 183.937 280.839C184.289 280.839 184.596 280.903 184.859 281.031C185.123 281.158 185.328 281.331 185.473 281.548C185.621 281.763 185.694 282.005 185.692 282.274C185.694 282.559 185.605 282.797 185.426 282.987C185.249 283.178 185.018 283.299 184.733 283.35V283.39C185.107 283.438 185.392 283.568 185.588 283.78C185.785 283.991 185.883 284.254 185.881 284.571C185.883 284.861 185.799 285.118 185.63 285.344C185.463 285.569 185.232 285.746 184.937 285.876C184.642 286.005 184.303 286.07 183.922 286.07Z" fill="#65615B"/>
<rect x="161" y="397" width="41" height="75" rx="1" transform="rotate(180 161 397)" fill="#EDE5D0" stroke="#D6D3CD"/>
<path d="M136.695 363.153H135.542L137.299 358.062H138.686L140.441 363.153H139.288L138.012 359.226H137.973L136.695 363.153ZM136.623 361.152H139.347V361.992H136.623V361.152ZM141.024 363.153V362.378L142.836 360.7C142.99 360.551 143.119 360.416 143.224 360.297C143.33 360.178 143.41 360.061 143.465 359.947C143.52 359.831 143.547 359.705 143.547 359.571C143.547 359.422 143.513 359.294 143.445 359.186C143.377 359.077 143.284 358.993 143.167 358.935C143.049 358.875 142.916 358.845 142.767 358.845C142.611 358.845 142.475 358.877 142.359 358.94C142.243 359.003 142.153 359.093 142.09 359.211C142.027 359.328 141.996 359.468 141.996 359.631H140.974C140.974 359.298 141.05 359.009 141.2 358.763C141.351 358.518 141.563 358.328 141.834 358.194C142.106 358.06 142.419 357.993 142.774 357.993C143.139 357.993 143.456 358.057 143.726 358.187C143.998 358.314 144.209 358.492 144.36 358.719C144.511 358.946 144.586 359.206 144.586 359.499C144.586 359.691 144.548 359.881 144.472 360.068C144.397 360.256 144.264 360.464 144.072 360.692C143.879 360.919 143.608 361.192 143.259 361.51L142.515 362.238V362.273H144.653V363.153H141.024Z" fill="#65615B"/>
<rect x="161" y="321" width="41" height="75" rx="1" transform="rotate(180 161 321)" fill="#EDE5D0" stroke="#D6D3CD"/>
<path d="M137.32 286H136.167L137.924 280.909H139.311L141.066 286H139.913L138.637 282.072H138.598L137.32 286ZM137.248 283.999H139.972V284.839H137.248V283.999ZM143.531 286.07C143.16 286.07 142.829 286.006 142.539 285.878C142.251 285.749 142.023 285.572 141.855 285.346C141.69 285.119 141.604 284.857 141.599 284.561H142.683C142.69 284.685 142.73 284.794 142.805 284.889C142.881 284.982 142.982 285.054 143.108 285.105C143.234 285.156 143.376 285.182 143.533 285.182C143.697 285.182 143.842 285.153 143.968 285.095C144.094 285.037 144.193 284.957 144.264 284.854C144.335 284.751 144.371 284.633 144.371 284.499C144.371 284.363 144.333 284.243 144.257 284.138C144.182 284.032 144.074 283.949 143.933 283.89C143.794 283.83 143.628 283.8 143.436 283.8H142.961V283.01H143.436C143.599 283.01 143.742 282.981 143.866 282.925C143.992 282.869 144.09 282.791 144.16 282.691C144.229 282.59 144.264 282.473 144.264 282.338C144.264 282.211 144.233 282.099 144.172 282.003C144.112 281.905 144.028 281.829 143.919 281.774C143.811 281.719 143.685 281.692 143.541 281.692C143.395 281.692 143.261 281.719 143.14 281.772C143.019 281.823 142.923 281.897 142.85 281.993C142.777 282.089 142.738 282.202 142.733 282.331H141.701C141.706 282.038 141.79 281.779 141.952 281.555C142.115 281.332 142.333 281.157 142.608 281.031C142.885 280.903 143.198 280.839 143.546 280.839C143.897 280.839 144.204 280.903 144.468 281.031C144.731 281.158 144.936 281.331 145.082 281.548C145.229 281.763 145.302 282.005 145.301 282.274C145.302 282.559 145.214 282.797 145.035 282.987C144.857 283.178 144.626 283.299 144.341 283.35V283.39C144.716 283.438 145.001 283.568 145.196 283.78C145.393 283.991 145.491 284.254 145.49 284.571C145.491 284.861 145.407 285.118 145.238 285.344C145.071 285.569 144.84 285.746 144.545 285.876C144.25 286.005 143.912 286.07 143.531 286.07Z" fill="#65615B"/>
<line x1="399.5" y1="242.001" x2="399.5" y2="542.001" stroke="#E7E4DF"/>
<line x1="399.5" y1="242" x2="399.5" y2="542" stroke="#E7E4DF"/>
<line y1="-0.5" x2="300.275" y2="-0.5" transform="matrix(0 1 -0.999998 0.00206421 441.497 241.764)" stroke="#EFECE7" stroke-dasharray="6 6"/>
<rect x="482" y="314" width="83" height="73" rx="1" transform="rotate(180 482 314)" fill="#FAF8F4" stroke="#D6D3CD"/>
<line x1="440.796" y1="313.897" x2="440.796" y2="241.301" stroke="#EFECE7" stroke-dasharray="6 6"/>
<path d="M432.442 273.909H433.77L435.172 277.33H435.232L436.634 273.909H437.961V279H436.917V275.686H436.875L435.557 278.975H434.846L433.529 275.674H433.487V279H432.442V273.909ZM438.654 274.797V273.909H442.835V274.797H441.276V279H440.212V274.797H438.654ZM446.023 279V279.803H442.68V279H446.023ZM447.889 273.909V279H446.813V274.931H446.783L445.617 275.662V274.707L446.877 273.909H447.889Z" fill="#65615B"/>
<rect x="482" y="542" width="41" height="75" rx="1" transform="rotate(180 482 542)" fill="#EDE5D0" stroke="#D6D3CD"/>
<path d="M456.442 508V502.909H458.481C458.855 502.909 459.168 502.965 459.418 503.076C459.668 503.187 459.856 503.341 459.982 503.538C460.108 503.734 460.171 503.959 460.171 504.214C460.171 504.413 460.131 504.588 460.052 504.739C459.972 504.888 459.863 505.01 459.724 505.107C459.586 505.201 459.429 505.268 459.251 505.308V505.358C459.445 505.366 459.627 505.421 459.796 505.522C459.967 505.623 460.105 505.764 460.211 505.947C460.317 506.127 460.37 506.343 460.37 506.593C460.37 506.863 460.303 507.104 460.169 507.316C460.036 507.527 459.84 507.693 459.58 507.816C459.319 507.939 458.999 508 458.618 508H456.442ZM457.519 507.12H458.396C458.696 507.12 458.915 507.063 459.053 506.949C459.19 506.833 459.259 506.678 459.259 506.486C459.259 506.345 459.225 506.221 459.157 506.113C459.089 506.006 458.992 505.921 458.866 505.86C458.742 505.798 458.594 505.768 458.421 505.768H457.519V507.12ZM457.519 505.039H458.317C458.464 505.039 458.595 505.014 458.71 504.962C458.826 504.909 458.917 504.835 458.983 504.739C459.051 504.643 459.085 504.527 459.085 504.393C459.085 504.209 459.019 504.061 458.888 503.948C458.759 503.835 458.575 503.779 458.337 503.779H457.519V505.039ZM463.255 502.909V508H462.179V503.931H462.149L460.983 504.662V503.707L462.244 502.909H463.255Z" fill="#65615B"/>
<rect x="482" y="466" width="41" height="75" rx="1" transform="rotate(180 482 466)" fill="#EDE5D0" stroke="#D6D3CD"/>
<path d="M457.442 432V426.909H460.813V427.797H458.519V429.01H460.589V429.897H458.519V432H457.442ZM461.507 432V431.224L463.32 429.547C463.474 429.397 463.603 429.263 463.707 429.144C463.813 429.025 463.894 428.908 463.948 428.793C464.003 428.677 464.03 428.552 464.03 428.418C464.03 428.269 463.996 428.14 463.929 428.033C463.861 427.923 463.768 427.84 463.65 427.782C463.532 427.722 463.399 427.692 463.25 427.692C463.094 427.692 462.958 427.724 462.842 427.787C462.726 427.85 462.637 427.94 462.574 428.058C462.511 428.175 462.479 428.315 462.479 428.478H461.458C461.458 428.145 461.533 427.855 461.684 427.61C461.835 427.365 462.046 427.175 462.318 427.041C462.59 426.907 462.903 426.839 463.257 426.839C463.622 426.839 463.939 426.904 464.209 427.033C464.481 427.161 464.693 427.338 464.843 427.565C464.994 427.792 465.07 428.053 465.07 428.346C465.07 428.538 465.031 428.728 464.955 428.915C464.881 429.102 464.747 429.31 464.555 429.539C464.363 429.766 464.092 430.039 463.742 430.357L462.999 431.085V431.12H465.137V432H461.507Z" fill="#65615B"/>
<rect x="482" y="390" width="41" height="75" rx="1" transform="rotate(180 482 390)" fill="#EDE5D0" stroke="#D6D3CD"/>
<path d="M456.442 355V349.909H458.481C458.855 349.909 459.168 349.965 459.418 350.076C459.668 350.187 459.856 350.341 459.982 350.538C460.108 350.734 460.171 350.959 460.171 351.214C460.171 351.413 460.131 351.588 460.052 351.739C459.972 351.888 459.863 352.01 459.724 352.107C459.586 352.201 459.429 352.268 459.251 352.308V352.358C459.445 352.366 459.627 352.421 459.796 352.522C459.967 352.623 460.105 352.764 460.211 352.947C460.317 353.127 460.37 353.343 460.37 353.593C460.37 353.863 460.303 354.104 460.169 354.316C460.036 354.527 459.84 354.693 459.58 354.816C459.319 354.939 458.999 355 458.618 355H456.442ZM457.519 354.12H458.396C458.696 354.12 458.915 354.063 459.053 353.949C459.19 353.833 459.259 353.678 459.259 353.486C459.259 353.345 459.225 353.221 459.157 353.113C459.089 353.006 458.992 352.921 458.866 352.86C458.742 352.798 458.594 352.768 458.421 352.768H457.519V354.12ZM457.519 352.039H458.317C458.464 352.039 458.595 352.014 458.71 351.962C458.826 351.909 458.917 351.835 458.983 351.739C459.051 351.643 459.085 351.527 459.085 351.393C459.085 351.209 459.019 351.061 458.888 350.948C458.759 350.835 458.575 350.779 458.337 350.779H457.519V352.039ZM462.922 355.07C462.551 355.07 462.22 355.006 461.93 354.878C461.642 354.749 461.414 354.572 461.247 354.346C461.081 354.119 460.996 353.857 460.991 353.561H462.075C462.081 353.685 462.122 353.794 462.196 353.889C462.273 353.982 462.374 354.054 462.5 354.105C462.626 354.156 462.767 354.182 462.925 354.182C463.089 354.182 463.234 354.153 463.36 354.095C463.486 354.037 463.584 353.957 463.656 353.854C463.727 353.751 463.763 353.633 463.763 353.499C463.763 353.363 463.724 353.243 463.648 353.138C463.574 353.032 463.466 352.949 463.325 352.89C463.186 352.83 463.02 352.8 462.828 352.8H462.353V352.01H462.828C462.99 352.01 463.134 351.981 463.258 351.925C463.384 351.869 463.482 351.791 463.551 351.691C463.621 351.59 463.656 351.473 463.656 351.338C463.656 351.211 463.625 351.099 463.564 351.003C463.504 350.905 463.419 350.829 463.31 350.774C463.202 350.719 463.076 350.692 462.932 350.692C462.786 350.692 462.653 350.719 462.532 350.772C462.411 350.823 462.314 350.897 462.241 350.993C462.168 351.089 462.129 351.202 462.124 351.331H461.093C461.098 351.038 461.181 350.779 461.344 350.555C461.506 350.332 461.725 350.157 462 350.031C462.277 349.903 462.589 349.839 462.937 349.839C463.289 349.839 463.596 349.903 463.859 350.031C464.123 350.158 464.328 350.331 464.473 350.548C464.621 350.763 464.694 351.005 464.692 351.274C464.694 351.559 464.605 351.797 464.426 351.987C464.249 352.178 464.018 352.299 463.733 352.35V352.39C464.107 352.438 464.392 352.568 464.588 352.78C464.785 352.991 464.883 353.254 464.881 353.571C464.883 353.861 464.799 354.118 464.63 354.344C464.463 354.569 464.232 354.746 463.937 354.876C463.642 355.005 463.303 355.07 462.922 355.07Z" fill="#65615B"/>
<rect x="440" y="542" width="41" height="75" rx="1" transform="rotate(180 440 542)" fill="#EDE5D0" stroke="#D6D3CD"/>
<path d="M416.442 509V503.909H419.873V504.797H417.519V506.01H419.696V506.897H417.519V508.113H419.883V509H416.442ZM422.914 503.909V509H421.837V504.931H421.807L420.642 505.662V504.707L421.902 503.909H422.914Z" fill="#65615B"/>
<rect x="440" y="466" width="41" height="75" rx="1" transform="rotate(180 440 466)" fill="#EDE5D0" stroke="#D6D3CD"/>
<path d="M415.695 432.153H414.542L416.299 427.062H417.686L419.441 432.153H418.288L417.012 428.226H416.973L415.695 432.153ZM415.623 430.152H418.347V430.992H415.623V430.152ZM420.024 432.153V431.378L421.836 429.7C421.99 429.551 422.119 429.416 422.224 429.297C422.33 429.178 422.41 429.061 422.465 428.947C422.52 428.831 422.547 428.705 422.547 428.571C422.547 428.422 422.513 428.294 422.445 428.186C422.377 428.077 422.284 427.993 422.167 427.935C422.049 427.875 421.916 427.845 421.767 427.845C421.611 427.845 421.475 427.877 421.359 427.94C421.243 428.003 421.153 428.093 421.09 428.211C421.027 428.328 420.996 428.468 420.996 428.631H419.974C419.974 428.298 420.05 428.009 420.2 427.763C420.351 427.518 420.563 427.328 420.834 427.194C421.106 427.06 421.419 426.993 421.774 426.993C422.139 426.993 422.456 427.057 422.726 427.187C422.998 427.314 423.209 427.492 423.36 427.719C423.511 427.946 423.586 428.206 423.586 428.499C423.586 428.691 423.548 428.881 423.472 429.068C423.397 429.256 423.264 429.464 423.072 429.692C422.879 429.919 422.608 430.192 422.259 430.51L421.515 431.238V431.273H423.653V432.153H420.024Z" fill="#65615B"/>
<rect x="440" y="390" width="41" height="75" rx="1" transform="rotate(180 440 390)" fill="#EDE5D0" stroke="#D6D3CD"/>
<path d="M416.32 355H415.167L416.924 349.909H418.311L420.066 355H418.913L417.637 351.072H417.598L416.32 355ZM416.248 352.999H418.972V353.839H416.248V352.999ZM422.531 355.07C422.16 355.07 421.829 355.006 421.539 354.878C421.251 354.749 421.023 354.572 420.855 354.346C420.69 354.119 420.604 353.857 420.599 353.561H421.683C421.69 353.685 421.73 353.794 421.805 353.889C421.881 353.982 421.982 354.054 422.108 354.105C422.234 354.156 422.376 354.182 422.533 354.182C422.697 354.182 422.842 354.153 422.968 354.095C423.094 354.037 423.193 353.957 423.264 353.854C423.335 353.751 423.371 353.633 423.371 353.499C423.371 353.363 423.333 353.243 423.257 353.138C423.182 353.032 423.074 352.949 422.933 352.89C422.794 352.83 422.628 352.8 422.436 352.8H421.961V352.01H422.436C422.599 352.01 422.742 351.981 422.866 351.925C422.992 351.869 423.09 351.791 423.16 351.691C423.229 351.59 423.264 351.473 423.264 351.338C423.264 351.211 423.233 351.099 423.172 351.003C423.112 350.905 423.028 350.829 422.919 350.774C422.811 350.719 422.685 350.692 422.541 350.692C422.395 350.692 422.261 350.719 422.14 350.772C422.019 350.823 421.923 350.897 421.85 350.993C421.777 351.089 421.738 351.202 421.733 351.331H420.701C420.706 351.038 420.79 350.779 420.952 350.555C421.115 350.332 421.333 350.157 421.608 350.031C421.885 349.903 422.198 349.839 422.546 349.839C422.897 349.839 423.204 349.903 423.468 350.031C423.731 350.158 423.936 350.331 424.082 350.548C424.229 350.763 424.302 351.005 424.301 351.274C424.302 351.559 424.214 351.797 424.035 351.987C423.857 352.178 423.626 352.299 423.341 352.35V352.39C423.716 352.438 424.001 352.568 424.196 352.78C424.393 352.991 424.491 353.254 424.49 353.571C424.491 353.861 424.407 354.118 424.238 354.344C424.071 354.569 423.84 354.746 423.545 354.876C423.25 355.005 422.912 355.07 422.531 355.07Z" fill="#65615B"/>
<rect x="482" y="314" width="83" height="88" rx="1" transform="rotate(180 482 314)" fill="#FAF8F4" stroke="#D6D3CD"/>
<line x1="440.796" y1="313.876" x2="440.796" y2="226.363" stroke="#EFECE7" stroke-dasharray="6 6"/>
<path d="M432.442 265.279H433.77L435.172 268.699H435.232L436.634 265.279H437.961V270.37H436.917V267.056H436.875L435.557 270.345H434.846L433.529 267.044H433.487V270.37H432.442V265.279ZM438.654 266.166V265.279H442.835V266.166H441.276V270.37H440.212V266.166H438.654ZM446.023 270.37V271.173H442.68V270.37H446.023ZM447.994 270.439C447.622 270.439 447.292 270.376 447.002 270.248C446.713 270.119 446.486 269.941 446.318 269.716C446.152 269.489 446.067 269.227 446.062 268.931H447.146C447.153 269.055 447.193 269.164 447.268 269.259C447.344 269.352 447.445 269.424 447.571 269.475C447.697 269.526 447.839 269.552 447.996 269.552C448.16 269.552 448.305 269.523 448.431 269.465C448.557 269.407 448.656 269.327 448.727 269.224C448.798 269.121 448.834 269.003 448.834 268.868C448.834 268.733 448.796 268.612 448.719 268.508C448.645 268.402 448.537 268.319 448.396 268.259C448.257 268.2 448.091 268.17 447.899 268.17H447.424V267.379H447.899C448.062 267.379 448.205 267.351 448.329 267.295C448.455 267.239 448.553 267.161 448.623 267.061C448.692 266.96 448.727 266.843 448.727 266.708C448.727 266.581 448.696 266.469 448.635 266.373C448.575 266.275 448.491 266.199 448.381 266.144C448.274 266.089 448.148 266.062 448.004 266.062C447.858 266.062 447.724 266.088 447.603 266.142C447.482 266.193 447.385 266.267 447.312 266.363C447.24 266.459 447.201 266.572 447.196 266.701H446.164C446.169 266.407 446.253 266.149 446.415 265.925C446.578 265.702 446.796 265.527 447.071 265.401C447.348 265.273 447.661 265.209 448.009 265.209C448.36 265.209 448.667 265.273 448.931 265.401C449.194 265.528 449.399 265.701 449.545 265.918C449.692 266.133 449.765 266.375 449.763 266.644C449.765 266.929 449.676 267.166 449.498 267.357C449.32 267.548 449.089 267.669 448.804 267.72V267.76C449.179 267.808 449.464 267.938 449.659 268.15C449.856 268.361 449.954 268.624 449.952 268.941C449.954 269.231 449.87 269.488 449.701 269.714C449.534 269.939 449.303 270.116 449.008 270.246C448.713 270.375 448.375 270.439 447.994 270.439Z" fill="#65615B"/>
<rect x="482" y="542" width="41" height="75" rx="1" transform="rotate(180 482 542)" fill="#EDE5D0" stroke="#D6D3CD"/>
<path d="M457.442 509V503.909H460.813V504.797H458.519V506.01H460.589V506.897H458.519V509H457.442ZM463.722 503.909V509H462.646V504.931H462.616L461.45 505.662V504.707L462.71 503.909H463.722Z" fill="#65615B"/>
<rect x="482" y="390" width="41" height="75" rx="1" transform="rotate(180 482 390)" fill="#EDE5D0" stroke="#D6D3CD"/>
<path d="M457.442 355V349.909H460.813V350.797H458.519V352.01H460.589V352.897H458.519V355H457.442ZM463.389 355.07C463.018 355.07 462.687 355.006 462.397 354.878C462.109 354.749 461.881 354.572 461.714 354.346C461.548 354.119 461.463 353.857 461.458 353.561H462.541C462.548 353.685 462.589 353.794 462.663 353.889C462.739 353.982 462.841 354.054 462.967 354.105C463.092 354.156 463.234 354.182 463.392 354.182C463.556 354.182 463.701 354.153 463.827 354.095C463.953 354.037 464.051 353.957 464.122 353.854C464.194 353.751 464.229 353.633 464.229 353.499C464.229 353.363 464.191 353.243 464.115 353.138C464.04 353.032 463.933 352.949 463.792 352.89C463.653 352.83 463.487 352.8 463.295 352.8H462.82V352.01H463.295C463.457 352.01 463.6 351.981 463.725 351.925C463.851 351.869 463.948 351.791 464.018 351.691C464.088 351.59 464.122 351.473 464.122 351.338C464.122 351.211 464.092 351.099 464.03 351.003C463.971 350.905 463.886 350.829 463.777 350.774C463.669 350.719 463.543 350.692 463.399 350.692C463.253 350.692 463.12 350.719 462.999 350.772C462.878 350.823 462.781 350.897 462.708 350.993C462.635 351.089 462.596 351.202 462.591 351.331H461.56C461.565 351.038 461.648 350.779 461.811 350.555C461.973 350.332 462.192 350.157 462.467 350.031C462.744 349.903 463.056 349.839 463.404 349.839C463.755 349.839 464.063 349.903 464.326 350.031C464.59 350.158 464.794 350.331 464.94 350.548C465.088 350.763 465.161 351.005 465.159 351.274C465.161 351.559 465.072 351.797 464.893 351.987C464.716 352.178 464.485 352.299 464.199 352.35V352.39C464.574 352.438 464.859 352.568 465.055 352.78C465.252 352.991 465.35 353.254 465.348 353.571C465.35 353.861 465.266 354.118 465.097 354.344C464.929 354.569 464.698 354.746 464.403 354.876C464.108 355.005 463.77 355.07 463.389 355.07Z" fill="#65615B"/>
<rect x="440" y="466" width="41" height="75" rx="1" transform="rotate(180 440 466)" fill="#EDE5D0" stroke="#D6D3CD"/>
<path d="M416.817 432.153V427.062H420.248V427.95H417.894V429.163H420.071V430.05H417.894V431.266H420.258V432.153H416.817ZM421.074 432.153V431.378L422.886 429.7C423.04 429.551 423.169 429.416 423.274 429.297C423.38 429.178 423.46 429.061 423.515 428.947C423.57 428.831 423.597 428.705 423.597 428.571C423.597 428.422 423.563 428.294 423.495 428.186C423.427 428.077 423.334 427.993 423.217 427.935C423.099 427.875 422.965 427.845 422.816 427.845C422.661 427.845 422.525 427.877 422.409 427.94C422.293 428.003 422.203 428.093 422.14 428.211C422.077 428.328 422.046 428.468 422.046 428.631H421.024C421.024 428.298 421.099 428.009 421.25 427.763C421.401 427.518 421.612 427.328 421.884 427.194C422.156 427.06 422.469 426.993 422.824 426.993C423.188 426.993 423.506 427.057 423.776 427.187C424.048 427.314 424.259 427.492 424.41 427.719C424.561 427.946 424.636 428.206 424.636 428.499C424.636 428.691 424.598 428.881 424.522 429.068C424.447 429.256 424.314 429.464 424.121 429.692C423.929 429.919 423.658 430.192 423.309 430.51L422.565 431.238V431.273H424.703V432.153H421.074Z" fill="#65615B"/>
<rect x="440" y="390" width="41" height="75" rx="1" transform="rotate(180 440 390)" fill="#EDE5D0" stroke="#D6D3CD"/>
<path d="M416.442 355V349.909H419.873V350.797H417.519V352.01H419.696V352.897H417.519V354.113H419.883V355H416.442ZM422.581 355.07C422.209 355.07 421.879 355.006 421.589 354.878C421.3 354.749 421.072 354.572 420.905 354.346C420.739 354.119 420.654 353.857 420.649 353.561H421.733C421.739 353.685 421.78 353.794 421.855 353.889C421.931 353.982 422.032 354.054 422.158 354.105C422.284 354.156 422.426 354.182 422.583 354.182C422.747 354.182 422.892 354.153 423.018 354.095C423.144 354.037 423.243 353.957 423.314 353.854C423.385 353.751 423.421 353.633 423.421 353.499C423.421 353.363 423.383 353.243 423.306 353.138C423.232 353.032 423.124 352.949 422.983 352.89C422.844 352.83 422.678 352.8 422.486 352.8H422.011V352.01H422.486C422.648 352.01 422.792 351.981 422.916 351.925C423.042 351.869 423.14 351.791 423.209 351.691C423.279 351.59 423.314 351.473 423.314 351.338C423.314 351.211 423.283 351.099 423.222 351.003C423.162 350.905 423.078 350.829 422.968 350.774C422.861 350.719 422.735 350.692 422.59 350.692C422.445 350.692 422.311 350.719 422.19 350.772C422.069 350.823 421.972 350.897 421.899 350.993C421.826 351.089 421.788 351.202 421.783 351.331H420.751C420.756 351.038 420.84 350.779 421.002 350.555C421.164 350.332 421.383 350.157 421.658 350.031C421.935 349.903 422.247 349.839 422.595 349.839C422.947 349.839 423.254 349.903 423.518 350.031C423.781 350.158 423.986 350.331 424.132 350.548C424.279 350.763 424.352 351.005 424.35 351.274C424.352 351.559 424.263 351.797 424.084 351.987C423.907 352.178 423.676 352.299 423.391 352.35V352.39C423.765 352.438 424.05 352.568 424.246 352.78C424.443 352.991 424.541 353.254 424.539 353.571C424.541 353.861 424.457 354.118 424.288 354.344C424.121 354.569 423.89 354.746 423.595 354.876C423.3 355.005 422.962 355.07 422.581 355.07Z" fill="#65615B"/>
</svg>
